HIERARCHY
ROOT hip
{
	OFFSET 0.000000 0.000000 0.000000 
	CHANNELS 6 Xposition Yposition Zposition Xrotation Zrotation Yrotation
	JOINT abdomen
	{
		OFFSET 0.000000 3.402643 0.000000 
		CHANNELS 3 Xrotation Zrotation Yrotation
		JOINT chest
		{
			OFFSET 0.000000 8.438565 -0.680529 
			CHANNELS 3 Xrotation Zrotation Yrotation
			JOINT neck
			{
				OFFSET 0.000000 10.207942 -0.272212 
				CHANNELS 3 Xrotation Zrotation Yrotation
				JOINT head
				{
					OFFSET 0.000000 3.130431 0.000000 
					CHANNELS 3 Xrotation Zrotation Yrotation
					End Site
					{
						OFFSET 0.000000 3.130435 0.000000 
					}
				}
			}
			JOINT lCollar
			{
				OFFSET 3.470700 6.669187 -0.816635 
				CHANNELS 3 Yrotation Zrotation Xrotation
				JOINT lShldr
				{
					OFFSET 3.198488 0.000000 0.000000 
					CHANNELS 3 Zrotation Yrotation Xrotation
					JOINT lForeArm
					{
						OFFSET 10.139888 0.000000 0.000000 
						CHANNELS 3 Yrotation Zrotation Xrotation
						JOINT lHand
						{
							OFFSET 8.370511 0.000000 0.000000 
							CHANNELS 3 Zrotation Yrotation Xrotation
							End Site
							{
								OFFSET 4.083176 0.000000 0.000000 
							}
						}
					}
				}
			}
			JOINT rCollar
			{
				OFFSET -3.470700 6.669187 -0.816635 
				CHANNELS 3 Yrotation Zrotation Xrotation
				JOINT rShldr
				{
					OFFSET -3.198488 0.000000 0.000000 
					CHANNELS 3 Zrotation Yrotation Xrotation
					JOINT rForeArm
					{
						OFFSET -10.139888 0.000000 0.000000 
						CHANNELS 3 Yrotation Zrotation Xrotation
						JOINT rHand
						{
							OFFSET -8.370511 0.000000 0.000000 
							CHANNELS 3 Zrotation Yrotation Xrotation
							End Site
							{
								OFFSET -4.083176 0.000000 0.000000 
							}
						}
					}
				}
			}
		}
	}
	JOINT lThigh
	{
		OFFSET 5.308129 -1.633274 1.361059 
		CHANNELS 3 Xrotation Zrotation Yrotation
		JOINT lShin
		{
			OFFSET -2.041588 -20.007561 0.000000 
			CHANNELS 3 Xrotation Zrotation Yrotation
			JOINT lFoot
			{
				OFFSET 0.000000 -19.190928 -1.224953 
				CHANNELS 3 Xrotation Yrotation Zrotation
				End Site
				{
					OFFSET 0.000000 -2.449906 4.627600 
				}
			}
		}
	}
	JOINT rThigh
	{
		OFFSET -5.308129 -1.633274 1.361059 
		CHANNELS 3 Xrotation Zrotation Yrotation
		JOINT rShin
		{
			OFFSET 2.041588 -20.007561 0.000000 
			CHANNELS 3 Xrotation Zrotation Yrotation
			JOINT rFoot
			{
				OFFSET 0.000000 -19.190928 -1.224953 
				CHANNELS 3 Xrotation Yrotation Zrotation
				End Site
				{
					OFFSET 0.000000 -2.449906 4.627600 
				}
			}
		}
	}
}
MOTION
Frames: 8
Frame Time: 0.033333
-0.711378 49.409962 2.923630 -0.801046 -1.474465 1.026466 0.000000 0.000000 0.000000 -3.838950 1.344633 -0.471055 4.826736 0.841187 -0.314486 5.097652 -0.087726 -0.160641 -1.031851 9.643857 -2.875542 -11.409655 6.606077 -6.152092 0.231692 -4.145818 11.797302 0.136044 -4.907703 -3.377918 -0.193490 -8.464628 -2.952952 6.976859 -13.301768 -0.249610 -0.621925 3.364973 7.127534 -0.785606 3.636251 -3.445170 5.651137 10.690352 9.159200 10.398104 -2.176429 7.335679 -12.491684 1.035362 -9.418895 5.191462 -5.612103 -7.055252 9.791227 2.730470 -17.303658 -11.138724 -0.854604 8.598963 
-0.732019 49.429970 2.880844 -0.732665 -1.474489 1.073535 0.000000 0.000000 0.000000 -3.897590 1.364026 -0.473757 4.896014 0.648985 -0.466399 5.214822 0.204720 -0.441809 -0.493127 9.753923 -2.973756 -11.829609 6.083221 -6.385936 0.243669 -4.146379 11.944257 0.222772 -4.716679 -3.392797 -0.189921 -8.572658 -2.999497 6.627961 -13.326136 1.032816 -0.614330 4.139702 5.528552 -0.885885 3.835671 -3.451072 5.690854 10.681535 9.198737 10.067095 -2.205935 7.528533 -12.241102 1.022511 -9.419658 5.326301 -5.580618 -7.029524 9.380586 2.759532 -17.074148 -11.021583 -0.822076 8.449919 
-0.746238 49.410843 2.837303 -0.918201 -1.288897 1.026510 0.000000 0.000000 0.000000 -3.701931 1.159685 -0.446106 5.061417 0.591148 -0.573362 5.224514 0.428941 -0.591731 0.282462 9.370916 -2.871978 -11.523873 5.332937 -6.719022 0.259117 -4.159963 12.345972 0.122769 -4.849793 -3.387086 -0.155174 -8.514546 -2.823852 6.612891 -13.267084 0.758280 -0.616938 4.029929 5.565018 -0.805729 3.644825 -3.446345 5.738365 10.532716 9.142765 10.270532 -2.236416 7.514367 -12.321440 1.003101 -9.387812 4.997713 -5.828475 -7.161813 10.288184 2.769050 -16.936924 -11.363102 -0.847134 8.542521 
-0.782982 49.413235 2.803690 -0.674007 -1.318268 1.089722 0.000000 0.000000 0.000000 -3.897192 1.091221 -0.474711 4.953805 0.630691 -0.680325 5.400301 0.429016 -0.639243 0.386365 9.434737 -3.057913 -11.642867 5.301984 -6.822449 0.266188 -4.134835 12.131227 -0.073428 -4.851625 -3.365415 -0.203764 -8.414753 -2.991942 6.554389 -13.267348 0.722164 -0.603522 4.065459 4.988717 -0.752777 3.579523 -3.443409 5.397109 10.601927 9.062707 10.327929 -2.206701 7.522898 -12.265765 1.011676 -9.447416 4.685957 -5.750285 -7.069705 10.305538 2.738235 -17.133211 -11.324433 -0.851537 8.539451 
-0.806138 49.432362 2.750067 -0.615417 -1.396404 1.050150 0.000000 0.000000 0.000000 -3.916753 1.110682 -0.417823 4.982752 0.729779 -0.805747 5.380857 0.068251 -0.687437 0.508003 9.457183 -3.081433 -11.678257 5.204627 -6.666890 0.249044 -4.246257 11.761757 0.132311 -4.516609 -3.387250 -0.239816 -8.276616 -3.026173 6.444602 -13.248574 0.788421 -0.583734 4.119188 4.588883 -0.552749 3.513249 -3.431027 5.407687 10.690840 9.122765 10.090033 -2.234522 7.515143 -12.097403 1.006492 -9.435231 4.760988 -5.640035 -7.017148 9.920593 2.771302 -17.009504 -11.140919 -0.833213 8.382012 
-0.826273 49.422546 2.706273 -0.752164 -1.357305 0.926016 0.000000 0.000000 0.000000 -3.770180 1.062150 -0.343414 5.129541 0.593260 -0.978954 5.537109 0.039007 -0.939590 0.581660 9.335866 -2.949535 -11.650144 5.243774 -6.714394 0.259873 -4.156835 12.394694 0.150701 -4.495951 -3.388436 -0.240236 -8.364379 -2.889348 6.579429 -13.139547 0.389484 -0.547877 3.957200 4.192341 0.185609 3.293015 -3.395717 5.378261 10.681135 9.140648 10.337445 -2.226195 7.628176 -12.155874 1.019554 -9.462611 4.606763 -5.710432 -7.027431 10.356634 2.768961 -16.854450 -11.280047 -0.840213 8.392303 
-0.843641 49.436760 2.668963 -0.732613 -1.308487 0.934695 0.000000 0.000000 0.000000 -3.760355 1.013439 -0.300969 5.197906 0.444697 -1.005346 5.380847 0.156003 -1.063471 0.274793 9.165217 -2.913747 -11.634509 5.566092 -6.744966 0.254879 -4.095236 11.983335 0.435397 -4.498574 -3.405623 -0.297201 -8.391102 -2.885356 6.615132 -13.169089 0.602268 -0.527184 4.172246 3.073592 -0.454155 3.176736 -3.434959 5.447919 10.643085 9.088368 10.008114 -2.203814 7.551630 -11.932540 0.997835 -9.468411 4.652653 -5.726446 -7.038463 10.193639 2.780773 -16.717903 -11.219439 -0.828528 8.299173 
-0.846787 49.437138 2.628190 -0.703290 -1.240141 0.903890 0.000000 0.000000 0.000000 -3.760300 0.964716 -0.317299 5.286015 0.332292 -0.973112 5.185516 0.243706 -1.059477 0.262108 9.078093 -2.913326 -11.655638 5.643832 -6.785336 0.249378 -4.089666 11.611659 0.033477 -4.669210 -3.381503 -0.167017 -8.407186 -2.873588 6.593304 -13.345364 0.778619 -0.515728 4.338090 1.954514 -0.522680 3.338952 -3.439045 5.163414 10.690162 9.026922 10.151687 -2.255401 7.412588 -11.824758 0.992321 -9.446892 4.408040 -5.803088 -7.090472 10.482758 2.785848 -16.805864 -11.285367 -0.830104 8.332407 
